<svg width="20" height="20" viewBox="0 0 20 20" fill="white" xmlns="http://www.w3.org/2000/svg">
<path d="M18.0001 2H2.00008C1.2637 2 0.666748 2.59695 0.666748 3.33333V16.6667C0.666748 17.403 1.2637 18 2.00008 18H18.0001C18.7365 18 19.3334 17.403 19.3334 16.6667V3.33333C19.3334 2.59695 18.7365 2 18.0001 2Z" fill="black"/>
<path d="M0.666748 6L10.0001 11.3333L19.3334 6M2.00008 2H18.0001C18.7365 2 19.3334 2.59695 19.3334 3.33333V16.6667C19.3334 17.403 18.7365 18 18.0001 18H2.00008C1.2637 18 0.666748 17.403 0.666748 16.6667V3.33333C0.666748 2.59695 1.2637 2 2.00008 2Z" stroke="#EEEEEE" stroke-linecap="round" stroke-linejoin="round"/>
</svg>
