<svg width="20" height="20" viewBox="0 0 20 20" fill="none" xmlns="http://www.w3.org/2000/svg">
<path d="M12.6667 19.3333V17.3333V14.5833C12.6667 13.75 12.5825 13.4125 12.0833 12.9167C14.4092 12.6667 16.6667 11.7783 16.6667 7.88333C16.6634 6.88011 16.2642 5.91874 15.5558 5.20833C15.723 4.77793 15.8032 4.31866 15.7917 3.85707C15.7803 3.39549 15.6774 2.94076 15.4892 2.51917C15.4892 2.51917 14.6142 2.26917 12.5925 3.575C10.8926 3.1319 9.10743 3.1319 7.4075 3.575C5.385 2.26917 4.51083 2.51917 4.51083 2.51917C4.32256 2.94076 4.21972 3.39549 4.20828 3.85707C4.19684 4.31866 4.27701 4.77793 4.44417 5.20833C4.09076 5.56269 3.81074 5.98327 3.62012 6.44601C3.42951 6.90875 3.33205 7.40454 3.33333 7.905C3.33333 11.7717 5.59083 12.6383 7.91667 12.9167C7.42417 13.4075 7.28333 13.9858 7.33333 14.6667V19.3333" fill="white"/>
<path d="M7.33333 16C3.76167 17.125 3.92833 13.7083 2.5 13.3333M12.6667 19.3333V17.3333V14.5833C12.6667 13.75 12.5825 13.4125 12.0833 12.9167C14.4092 12.6667 16.6667 11.7783 16.6667 7.88333C16.6634 6.88011 16.2642 5.91874 15.5558 5.20833C15.723 4.77793 15.8032 4.31866 15.7917 3.85707C15.7803 3.39549 15.6774 2.94076 15.4892 2.51917C15.4892 2.51917 14.6142 2.26917 12.5925 3.575C10.8926 3.1319 9.10743 3.1319 7.4075 3.575C5.385 2.26917 4.51083 2.51917 4.51083 2.51917C4.32256 2.94076 4.21972 3.39549 4.20828 3.85707C4.19684 4.31866 4.27701 4.77793 4.44417 5.20833C4.09076 5.56269 3.81074 5.98327 3.62012 6.44601C3.42951 6.90875 3.33205 7.40454 3.33333 7.905C3.33333 11.7717 5.59083 12.6383 7.91667 12.9167C7.42417 13.4075 7.28333 13.9858 7.33333 14.6667V19.3333" stroke="#EEEEEE" stroke-linecap="round" stroke-linejoin="round"/>
</svg>
