<?xml version="1.0" encoding="utf-8"?>
<!-- Generator: Adobe Illustrator 24.2.2, SVG Export Plug-In . SVG Version: 6.00 Build 0)  -->
<svg version="1.1" id="Layer_1" xmlns="http://www.w3.org/2000/svg" xmlns:xlink="http://www.w3.org/1999/xlink" x="0px" y="0px"
	 viewBox="0 0 20 20" style="enable-background:new 0 0 20 20;" xml:space="preserve">
<style type="text/css">
	.st0{fill:#FFFFFF;}
</style>
<path class="st0" d="M16.6,3.9c-4.4-0.7-8.9-0.7-13.3,0C1.8,4.2,0.7,5.3,0.7,6.7v6.7c0,1.3,1.1,2.5,2.7,2.7c4.4,0.7,8.9,0.7,13.3,0
	c1.6-0.2,2.7-1.4,2.7-2.7V6.7C19.3,5.3,18.2,4.2,16.6,3.9z M12.9,10.8l-3.5,2c-0.7,0.4-1.7,0-1.7-0.8V8c0-0.7,1-1.2,1.7-0.8l3.5,2
	C13.6,9.6,13.6,10.4,12.9,10.8z"/>
</svg>
